<?xml version="1.0" encoding="UTF-8" standalone="no"?>
<!-- Created with Inkscape (http://www.inkscape.org/) -->

<svg
   xmlns:dc="http://purl.org/dc/elements/1.1/"
   xmlns:cc="http://creativecommons.org/ns#"
   xmlns:rdf="http://www.w3.org/1999/02/22-rdf-syntax-ns#"
   xmlns:svg="http://www.w3.org/2000/svg"
   xmlns="http://www.w3.org/2000/svg"
   xmlns:sodipodi="http://sodipodi.sourceforge.net/DTD/sodipodi-0.dtd"
   xmlns:inkscape="http://www.inkscape.org/namespaces/inkscape"
   width="50"
   height="50"
   id="svg2"
   version="1.1"
   inkscape:version="0.48.5 r10040"
   sodipodi:docname="player.svg">
  <defs
     id="defs4" />
  <sodipodi:namedview
     id="base"
     pagecolor="#ffff89"
     bordercolor="#666666"
     borderopacity="1.0"
     inkscape:pageopacity="0"
     inkscape:pageshadow="2"
     inkscape:zoom="5.27"
     inkscape:cx="65.180266"
     inkscape:cy="33.889454"
     inkscape:document-units="px"
     inkscape:current-layer="layer1"
     showgrid="false"
     inkscape:window-width="1254"
     inkscape:window-height="734"
     inkscape:window-x="20"
     inkscape:window-y="20"
     inkscape:window-maximized="0" />
  <metadata
     id="metadata7">
    <rdf:RDF>
      <cc:Work
         rdf:about="">
        <dc:format>image/svg+xml</dc:format>
        <dc:type
           rdf:resource="http://purl.org/dc/dcmitype/StillImage" />
        <dc:title></dc:title>
      </cc:Work>
    </rdf:RDF>
  </metadata>
  <g
     inkscape:label="Layer 1"
     inkscape:groupmode="layer"
     id="layer1"
     transform="translate(0,-1002.3622)">
    <path
       sodipodi:type="arc"
       style="fill:#ffffff;fill-opacity:1;fill-rule:evenodd;stroke:none"
       id="path2989"
       sodipodi:cx="74.1688"
       sodipodi:cy="67.007675"
       sodipodi:rx="51.918159"
       sodipodi:ry="51.918159"
       d="m 126.08696,67.007675 a 51.918159,51.918159 0 1 1 -103.836319,0 51.918159,51.918159 0 1 1 103.836319,0 z"
       transform="matrix(0.462266,0,0,0.462266,-9.2857148,996.38683)" />
    <path
       sodipodi:type="arc"
       style="fill:#50c375;fill-opacity:0;fill-rule:evenodd;stroke:none"
       id="path3759"
       sodipodi:cx="53.452686"
       sodipodi:cy="46.035805"
       sodipodi:rx="15.601023"
       sodipodi:ry="15.601023"
       d="m 69.053709,46.035805 c 0,8.616207 -6.984816,15.601022 -15.601023,15.601022 -8.616207,0 -15.601022,-6.984815 -15.601022,-15.601022 0,-8.616207 6.984815,-15.601023 15.601022,-15.601023 8.616207,0 15.601023,6.984816 15.601023,15.601023 z"
       transform="translate(0,952.36218)" />
    <path
       sodipodi:type="arc"
       style="fill:#93ff00;fill-opacity:0;fill-rule:evenodd;stroke:none"
       id="path3772"
       sodipodi:cx="47.438332"
       sodipodi:cy="50.474384"
       sodipodi:rx="6.4516129"
       sodipodi:ry="19.544592"
       d="m 53.889945,50.474384 c 0,10.79418 -2.888486,19.544592 -6.451613,19.544592 -3.563128,0 -6.451613,-8.750412 -6.451613,-19.544592 0,-10.79418 2.888485,-19.544592 6.451613,-19.544592 3.563127,0 6.451613,8.750412 6.451613,19.544592 z"
       transform="translate(0,952.36218)" />
    <path
       sodipodi:type="arc"
       style="fill:#50c375;fill-opacity:1;fill-rule:evenodd;stroke:none"
       id="path3774"
       sodipodi:cx="52.656548"
       sodipodi:cy="44.876659"
       sodipodi:rx="16.223909"
       sodipodi:ry="7.4952559"
       d="m 68.880457,44.876659 a 16.223909,7.4952559 0 1 1 -32.447819,0 16.223909,7.4952559 0 1 1 32.447819,0 z"
       transform="matrix(0.46228069,0,0,1.0006329,1.07873,973.33514)" />
    <rect
       style="fill:#50c375;fill-opacity:1;fill-rule:evenodd;stroke:none"
       id="rect3784"
       width="20"
       height="9.8671751"
       x="15.5"
       y="1033.474" />
    <path
       sodipodi:type="arc"
       style="fill:#50c375;fill-opacity:1;fill-rule:evenodd;stroke:none"
       id="path3786"
       sodipodi:cx="31.024668"
       sodipodi:cy="50.664135"
       sodipodi:rx="18.500948"
       sodipodi:ry="10.815939"
       d="m 49.525616,50.664135 a 18.500948,10.815939 0 1 1 -37.001896,0 18.500948,10.815939 0 1 1 37.001896,0 z"
       transform="matrix(0.54051284,0,0,0.57894736,8.730769,1004.7345)" />
  </g>
</svg>
